<svg width="25" height="25" viewBox="0 0 25 25" fill="none" xmlns="http://www.w3.org/2000/svg">
<path d="M8.98438 16.7759C13.1854 16.7759 16.5911 13.3702 16.5911 9.16919C16.5911 4.96813 13.1854 1.5625 8.98438 1.5625C4.78332 1.5625 1.37769 4.96813 1.37769 9.16919C1.37769 13.3702 4.78332 16.7759 8.98438 16.7759Z" fill="#0276B4"/>
<path d="M8.98438 15.2134C12.3225 15.2134 15.0286 12.5073 15.0286 9.16919C15.0286 5.83108 12.3225 3.125 8.98438 3.125C5.64626 3.125 2.94019 5.83108 2.94019 9.16919C2.94019 12.5073 5.64626 15.2134 8.98438 15.2134Z" fill="#C4F8FF"/>
<path d="M15.9092 17.5704L17.5662 15.9133L23.0897 21.4368C23.3094 21.6565 23.4328 21.9545 23.4328 22.2653C23.4328 22.576 23.3094 22.8741 23.0897 23.0938C22.8699 23.3135 22.5719 23.437 22.2611 23.437C21.9504 23.437 21.6524 23.3135 21.4326 23.0938L15.9092 17.5704Z" fill="#683B0D"/>
<path d="M6.64062 6.43481H11.3281V10.7317H6.64062V6.43481Z" fill="#FBB540"/>
<path d="M8.20312 6.43481H9.76562V7.99731H8.20312V6.43481Z" fill="#D32B39"/>
<path d="M9.76562 9.95044H8.20312C8.09952 9.95044 8.00017 9.90928 7.92691 9.83603C7.85365 9.76277 7.8125 9.66341 7.8125 9.55981C7.8125 9.45621 7.85365 9.35686 7.92691 9.2836C8.00017 9.21034 8.09952 9.16919 8.20312 9.16919H9.76562C9.86923 9.16919 9.96858 9.21034 10.0418 9.2836C10.1151 9.35686 10.1562 9.45621 10.1562 9.55981C10.1562 9.66341 10.1151 9.76277 10.0418 9.83603C9.96858 9.90928 9.86923 9.95044 9.76562 9.95044Z" fill="#EA9D2D"/>
<path d="M8.98438 12.6848C9.20011 12.6848 9.375 12.5099 9.375 12.2942C9.375 12.0785 9.20011 11.9036 8.98438 11.9036C8.76864 11.9036 8.59375 12.0785 8.59375 12.2942C8.59375 12.5099 8.76864 12.6848 8.98438 12.6848Z" fill="#43DCFE"/>
<path d="M7.8125 12.6848C8.02824 12.6848 8.20312 12.5099 8.20312 12.2942C8.20312 12.0785 8.02824 11.9036 7.8125 11.9036C7.59676 11.9036 7.42188 12.0785 7.42188 12.2942C7.42188 12.5099 7.59676 12.6848 7.8125 12.6848Z" fill="#43DCFE"/>
<path d="M10.1562 12.6848C10.372 12.6848 10.5469 12.5099 10.5469 12.2942C10.5469 12.0785 10.372 11.9036 10.1562 11.9036C9.94051 11.9036 9.76562 12.0785 9.76562 12.2942C9.76562 12.5099 9.94051 12.6848 10.1562 12.6848Z" fill="#43DCFE"/>
<path d="M12.8716 14.5317L14.5286 12.8747L17.5665 15.9126L15.9095 17.5696L12.8716 14.5317Z" fill="#0276B4"/>
</svg>
