<svg width="21" height="16" viewBox="0 0 21 16" fill="none" xmlns="http://www.w3.org/2000/svg">
<path d="M20.5929 2.08402H20.5889H19.679C19.4194 2.08402 19.209 1.87356 19.209 1.61393V1.61393C19.2164 1.42787 19.0955 1.26066 18.9159 1.20868C17.9579 0.958743 16.9714 0.833419 15.981 0.83585C15.6973 0.83585 15.3957 0.846924 15.0823 0.874002C12.2895 1.11533 8.70291 1.10916 5.90962 0.873176C5.59431 0.846537 5.29119 0.83585 5.00678 0.83585C4.01642 0.833419 3.02992 0.958743 2.07191 1.20868C1.8923 1.26066 1.7714 1.42787 1.77883 1.61393V1.61393C1.77883 1.87132 1.57018 2.07997 1.31279 2.07997H0.407056C0.182259 2.07997 0 2.26142 0 2.48522V15.429C0 15.6528 0.182259 15.8342 0.407056 15.8342C0.476967 15.834 0.545658 15.8159 0.606513 15.7815C0.647075 15.7613 4.68917 13.5601 10.3403 14.9561C10.3797 14.9658 10.4208 14.971 10.4613 14.971V14.971H10.498C10.5304 14.9749 10.5632 14.9749 10.5957 14.971C15.2885 13.7863 18.8772 15.0777 20.0115 15.5908C20.2669 15.7064 20.5535 15.9212 20.7965 15.7815V15.7815C20.9216 15.7096 20.9991 15.5769 21 15.433V2.48928C21 2.26548 20.8178 2.08402 20.5929 2.08402ZM1.72437 14.4479C1.28461 14.5946 0.814111 14.2775 0.814111 13.8139V3.38096C0.814111 3.11231 1.03189 2.89453 1.30054 2.89453V2.89453C1.56919 2.89453 1.78697 3.11231 1.78697 3.38096V13.0582C1.78443 13.282 1.9646 13.4655 2.1894 13.468C2.21138 13.4683 2.23336 13.4668 2.25509 13.4635C3.09718 13.3355 3.94737 13.2678 4.79919 13.2609V13.2609C5.21889 13.2536 5.16889 13.7272 4.7519 13.7754C3.72431 13.8943 2.70958 14.1192 1.72437 14.4479ZM4.79919 12.4544V12.4544C3.62075 12.4571 2.5848 11.5544 2.5848 10.3759V4.36741C2.5848 2.94578 3.57702 1.67007 4.99864 1.66662V1.66662C6.1001 1.66662 7.50414 1.84905 8.74825 2.57C9.70819 3.12628 10.0794 4.26511 10.0808 5.37458L10.0842 8.2269C10.0871 10.6011 7.17336 12.4544 4.79919 12.4544V12.4544ZM10.905 5.4004C10.905 4.27498 11.2846 3.1202 12.2618 2.5619C13.4994 1.85486 14.8914 1.66662 15.9851 1.66662V1.66662C17.4065 1.67078 18.3989 2.9459 18.3989 4.36737V10.3879C18.3989 11.5592 17.3681 12.4559 16.1967 12.4504V12.4504V12.4504C13.8116 12.4504 10.905 10.6091 10.905 8.22397V5.4004ZM20.1831 13.8177C20.1825 14.2797 19.7135 14.5953 19.2753 14.4489C18.2889 14.1193 17.2728 13.8937 16.2439 13.7744C15.8272 13.7261 15.7773 13.2532 16.1967 13.2609V13.2609C17.0539 13.2656 17.9096 13.332 18.7571 13.4594C18.9794 13.493 19.1869 13.3408 19.2207 13.1196C19.224 13.0979 19.2255 13.0761 19.2252 13.0542V3.38063C19.2252 3.11216 19.4429 2.89453 19.7113 2.89453V2.89453C19.9801 2.89453 20.1978 3.11257 20.1974 3.38129L20.1831 13.8177Z" fill="#2196F3"/>
</svg>
