<svg width="35" height="24" viewBox="0 0 35 24" fill="none" xmlns="http://www.w3.org/2000/svg">
<path d="M33.205 0H1.79491C0.807665 0 0 0.83074 0 1.84612V22.1538C0 23.1691 0.807665 24 1.79491 24H33.2051C34.1922 24 35 23.1693 35 22.1538V1.84612C34.9999 0.83074 34.1923 0 33.205 0ZM32.5315 1.38452L18.5325 12.1846C18.2808 12.3817 17.8944 12.5049 17.4999 12.5031C17.1055 12.5049 16.7192 12.3817 16.4674 12.1846L2.46838 1.38452H32.5315ZM25.0537 12.8973L32.6819 22.5896C32.6895 22.5993 32.6989 22.6067 32.707 22.6155H2.29291C2.30097 22.6063 2.31041 22.5993 2.31806 22.5896L9.94627 12.8973C10.18 12.6 10.1357 12.1643 9.84619 11.9234C9.55724 11.683 9.13362 11.7285 8.89983 12.0258L1.34613 21.6235V2.24993L15.6601 13.2922C16.1982 13.7044 16.8528 13.8858 17.4998 13.8876C18.146 13.8862 18.8011 13.7048 19.3395 13.2922L33.6535 2.24993V21.6234L26.1 12.0258C25.8663 11.7286 25.4422 11.6829 25.1537 11.9234C24.8642 12.1638 24.8198 12.6 25.0537 12.8973Z" fill="black"/>
</svg>
